<?xml version="1.0" encoding="utf-8"?>
<!-- Generator: Adobe Illustrator 21.1.0, SVG Export Plug-In . SVG Version: 6.00 Build 0)  -->
<svg version="1.1" id="Layer_1" xmlns="http://www.w3.org/2000/svg" xmlns:xlink="http://www.w3.org/1999/xlink" x="0px" y="0px"
	 viewBox="0 0 111.9 83.1" style="enable-background:new 0 0 111.9 83.1;" xml:space="preserve">
<style type="text/css">
	.st0{fill:#FFFFFF;}
	.st1{opacity:4.000000e-02;}
	.st2{opacity:0.2;}
	.st3{fill:#FFC30B;}
	.st4{fill:#FF5245;}
	.st5{fill:none;stroke:#FFFFFF;stroke-width:2;stroke-miterlimit:10;}
	.st6{fill:none;stroke:#000000;stroke-width:2;stroke-miterlimit:10;}
	.st7{fill:#FFC30B;stroke:#000000;stroke-width:2;stroke-miterlimit:10;}
	.st8{fill:#FFC30B;stroke:#FFFFFF;stroke-width:2;stroke-miterlimit:10;}
	.st9{clip-path:url(#SVGID_8_);}
	.st10{clip-path:url(#SVGID_10_);}
	.st11{clip-path:url(#SVGID_12_);}
	.st12{clip-path:url(#SVGID_14_);}
	.st13{clip-path:url(#SVGID_16_);}
	.st14{clip-path:url(#SVGID_18_);}
	.st15{clip-path:url(#SVGID_20_);}
	.st16{clip-path:url(#SVGID_22_);}
	.st17{clip-path:url(#SVGID_24_);}
	.st18{clip-path:url(#SVGID_26_);}
	.st19{clip-path:url(#SVGID_28_);}
	.st20{clip-path:url(#SVGID_30_);}
	.st21{clip-path:url(#SVGID_32_);}
	.st22{clip-path:url(#SVGID_34_);}
	.st23{fill:none;stroke:#FFFFFF;stroke-miterlimit:10;}
	.st24{fill:#FF5245;stroke:#FFFFFF;stroke-width:3;stroke-miterlimit:10;}
	.st25{fill-rule:evenodd;clip-rule:evenodd;fill:#FFFFFF;}
	.st26{fill:#FF5245;stroke:#FFFFFF;stroke-width:2;stroke-miterlimit:10;}
	.st27{clip-path:url(#SVGID_36_);}
	.st28{clip-path:url(#SVGID_38_);}
	.st29{clip-path:url(#SVGID_40_);}
	.st30{clip-path:url(#SVGID_42_);}
	.st31{fill:#FF5245;stroke:#000000;stroke-width:2;stroke-miterlimit:10;}
	.st32{clip-path:url(#SVGID_44_);}
	.st33{fill:none;stroke:#000000;stroke-miterlimit:10;}
	.st34{fill-rule:evenodd;clip-rule:evenodd;}
	.st35{fill:none;}
	.st36{clip-path:url(#SVGID_46_);}
	.st37{clip-path:url(#SVGID_48_);}
	.st38{clip-path:url(#SVGID_50_);}
	.st39{clip-path:url(#SVGID_52_);}
	.st40{clip-path:url(#SVGID_54_);}
	.st41{clip-path:url(#SVGID_56_);}
	.st42{fill:none;stroke:#FFFFFF;stroke-width:3;stroke-miterlimit:10;}
	.st43{fill:#FFFFFF;stroke:#000000;stroke-miterlimit:10;}
	.st44{clip-path:url(#SVGID_60_);}
	.st45{clip-path:url(#SVGID_62_);}
	.st46{clip-path:url(#SVGID_64_);}
	.st47{clip-path:url(#SVGID_66_);}
	.st48{clip-path:url(#SVGID_68_);}
	.st49{clip-path:url(#SVGID_70_);}
	.st50{clip-path:url(#SVGID_74_);}
	.st51{clip-path:url(#SVGID_76_);}
	.st52{clip-path:url(#SVGID_78_);}
	.st53{clip-path:url(#SVGID_80_);}
	.st54{clip-path:url(#SVGID_82_);}
	.st55{clip-path:url(#SVGID_84_);}
	.st56{fill:#444444;}
	.st57{fill:#FCD12A;}
	.st58{clip-path:url(#SVGID_88_);}
	.st59{clip-path:url(#SVGID_90_);}
	.st60{clip-path:url(#SVGID_92_);}
	.st61{fill:none;stroke:#FFC30B;stroke-linecap:round;stroke-linejoin:round;stroke-miterlimit:10;}
	.st62{fill:none;stroke:#FF5245;stroke-width:2;stroke-miterlimit:10;}
	.st63{clip-path:url(#SVGID_94_);}
	.st64{fill:none;stroke:#FFC30B;stroke-width:2;stroke-miterlimit:10;}
	.st65{fill:#232323;}
	.st66{fill:#333333;}
</style>
<g>
	<path class="st34" d="M51.2,33.8l5.2-4.7l1,1l-3.8,3.8l0.5,0.5l3.9-3.7l1,1l-3.7,3.9l0.5,0.5l3.8-3.8l1,1l-4.7,5.2h-2l-0.6-0.6
		l-0.8,0.8l7.1,7l-1.6,1.6l-7-7.1L44,47.1l-1.6-1.6l6.4-6.2l-6.5-7.9l1.5-1.5l7.2,7.2l0.8-0.8l-0.6-0.6
		C51.2,35.2,51.2,34.5,51.2,33.8L51.2,33.8z M20.7,35H30l0.1-3.9h-9.3L20.7,35z M22.4,41.6h7.4l0.1-3.9h-7.5L22.4,41.6z M29.8,44.2
		h-5.7v3.9h5.6L29.8,44.2z M70.6,32.5l0.1-6.6H32l-0.6,31h2.9c0.9,3.4,4,5.9,7.7,5.9c3.7,0,6.8-2.5,7.7-5.9h20.5c0.9,3.4,4,6,7.7,6
		c3.7,0,6.8-2.5,7.7-6h3.8V42l-6.4,0l-2.2-9.5L70.6,32.5L70.6,32.5z M73.7,55c0-2.2,1.8-4,4-4c2.2,0,4,1.8,4,4c0,2.2-1.8,4-4,4
		C75.5,59.1,73.7,57.3,73.7,55z M37.9,55c0-2.2,1.8-4,4-4s4,1.8,4,4c0,2.2-1.8,4-4,4C39.7,59,37.9,57.2,37.9,55z M70.5,42l0.1-5.6
		h6.9l1.3,5.6H70.5z"/>
</g>
</svg>
