<?xml version="1.0" encoding="utf-8"?>
<!-- Generator: Adobe Illustrator 21.1.0, SVG Export Plug-In . SVG Version: 6.00 Build 0)  -->
<svg version="1.1" id="Layer_1" xmlns="http://www.w3.org/2000/svg" xmlns:xlink="http://www.w3.org/1999/xlink" x="0px" y="0px"
	 viewBox="0 0 111.9 83.1" style="enable-background:new 0 0 111.9 83.1;" xml:space="preserve">
<style type="text/css">
	.st0{fill:#FFFFFF;}
	.st1{opacity:4.000000e-02;}
	.st2{opacity:0.2;}
	.st3{fill:#FFC30B;}
	.st4{fill:#FF5245;}
	.st5{fill:none;stroke:#FFFFFF;stroke-width:2;stroke-miterlimit:10;}
	.st6{fill:none;stroke:#000000;stroke-width:2;stroke-miterlimit:10;}
	.st7{fill:#FFC30B;stroke:#000000;stroke-width:2;stroke-miterlimit:10;}
	.st8{fill:#FFC30B;stroke:#FFFFFF;stroke-width:2;stroke-miterlimit:10;}
	.st9{clip-path:url(#SVGID_8_);}
	.st10{clip-path:url(#SVGID_10_);}
	.st11{clip-path:url(#SVGID_12_);}
	.st12{clip-path:url(#SVGID_14_);}
	.st13{clip-path:url(#SVGID_16_);}
	.st14{clip-path:url(#SVGID_18_);}
	.st15{clip-path:url(#SVGID_20_);}
	.st16{clip-path:url(#SVGID_22_);}
	.st17{clip-path:url(#SVGID_24_);}
	.st18{clip-path:url(#SVGID_26_);}
	.st19{clip-path:url(#SVGID_28_);}
	.st20{clip-path:url(#SVGID_30_);}
	.st21{clip-path:url(#SVGID_32_);}
	.st22{clip-path:url(#SVGID_34_);}
	.st23{fill:none;stroke:#FFFFFF;stroke-miterlimit:10;}
	.st24{fill:#FF5245;stroke:#FFFFFF;stroke-width:3;stroke-miterlimit:10;}
	.st25{fill-rule:evenodd;clip-rule:evenodd;fill:#FFFFFF;}
	.st26{fill:#FF5245;stroke:#FFFFFF;stroke-width:2;stroke-miterlimit:10;}
	.st27{clip-path:url(#SVGID_36_);}
	.st28{clip-path:url(#SVGID_38_);}
	.st29{clip-path:url(#SVGID_40_);}
	.st30{clip-path:url(#SVGID_42_);}
	.st31{fill:#FF5245;stroke:#000000;stroke-width:2;stroke-miterlimit:10;}
	.st32{clip-path:url(#SVGID_44_);}
	.st33{fill:none;stroke:#000000;stroke-miterlimit:10;}
	.st34{fill-rule:evenodd;clip-rule:evenodd;}
	.st35{fill:none;}
	.st36{clip-path:url(#SVGID_46_);}
	.st37{clip-path:url(#SVGID_48_);}
	.st38{clip-path:url(#SVGID_50_);}
	.st39{clip-path:url(#SVGID_52_);}
	.st40{clip-path:url(#SVGID_54_);}
	.st41{clip-path:url(#SVGID_56_);}
	.st42{fill:none;stroke:#FFFFFF;stroke-width:3;stroke-miterlimit:10;}
	.st43{fill:#FFFFFF;stroke:#000000;stroke-miterlimit:10;}
	.st44{clip-path:url(#SVGID_60_);}
	.st45{clip-path:url(#SVGID_62_);}
	.st46{clip-path:url(#SVGID_64_);}
	.st47{clip-path:url(#SVGID_66_);}
	.st48{clip-path:url(#SVGID_68_);}
	.st49{clip-path:url(#SVGID_70_);}
	.st50{clip-path:url(#SVGID_74_);}
	.st51{clip-path:url(#SVGID_76_);}
	.st52{clip-path:url(#SVGID_78_);}
	.st53{clip-path:url(#SVGID_80_);}
	.st54{clip-path:url(#SVGID_82_);}
	.st55{clip-path:url(#SVGID_84_);}
	.st56{fill:#444444;}
	.st57{fill:#FCD12A;}
	.st58{clip-path:url(#SVGID_88_);}
	.st59{clip-path:url(#SVGID_90_);}
	.st60{clip-path:url(#SVGID_92_);}
	.st61{fill:none;stroke:#FFC30B;stroke-linecap:round;stroke-linejoin:round;stroke-miterlimit:10;}
	.st62{fill:none;stroke:#FF5245;stroke-width:2;stroke-miterlimit:10;}
	.st63{clip-path:url(#SVGID_94_);}
	.st64{fill:none;stroke:#FFC30B;stroke-width:2;stroke-miterlimit:10;}
	.st65{fill:#232323;}
	.st66{fill:#333333;}
</style>
<g>
	<path d="M82.1,38.5c-0.2-4.8-2.1-9.3-5.3-12.9l2.2-2.2c3.8,4.1,6,9.4,6.2,15L82.1,38.5z M63.9,38.5l11.4-11.4
		c2.9,3.1,4.5,7.1,4.7,11.4H63.9z M79.7,21.2c-0.5-0.5-1-0.5-1.5,0L60.6,38.8c-0.3,0.3-0.3,0.8-0.2,1.1c0.1,0.3,0.6,0.7,1,0.7h24.8
		c0.6,0,1-0.5,1-1C87.2,32.6,84.6,26.1,79.7,21.2L79.7,21.2z"/>
	<path d="M53.5,66.6c-13.2,0-23.8-10.7-23.8-23.8s10.7-23.8,23.8-23.8c6,0,11.7,2.2,16.1,6.2l-2.2,2.2C63.6,24,58.7,22,53.5,22
		C42,22,32.7,31.3,32.7,42.8c0,11.3,9.2,20.8,20.8,20.8c11.1,0,20.2-8.8,20.7-19.6h3.1C76.7,56.5,66.2,66.6,53.5,66.6L53.5,66.6z
		 M52.7,42c-0.3,0.3-0.3,0.8-0.2,1.1c0.1,0.3,0.6,0.7,1,0.7h18.6c-0.6,9.9-8.7,17.6-18.6,17.6c-10.3,0-18.6-8.5-18.6-18.6
		c0-10.2,8.4-18.6,18.6-18.6c4.6,0,9,1.7,12.4,4.7L52.7,42z M78.3,41.8H56l15.7-15.7c0.5-0.5,0.5-1,0-1.5C66.8,19.6,60.4,17,53.4,17
		c-14.2-0.1-25.8,11.5-25.8,25.8s11.6,25.9,25.9,25.9c14.2,0,25.8-11.6,25.8-25.9C79.3,42.3,78.9,41.8,78.3,41.8L78.3,41.8z"/>
	<path d="M42.9,51.9c-1.3,0-2.3-1-2.3-2.3s1-2.3,2.3-2.3s2.3,1,2.3,2.3S44.2,51.9,42.9,51.9z M42.9,45.2c-2.4,0-4.4,2-4.4,4.4
		s2,4.4,4.4,4.4s4.4-2,4.4-4.4C47.4,47.2,45.3,45.2,42.9,45.2z"/>
	<path d="M44.6,30.7c1.3,0,2.3,1,2.3,2.3c0,1.3-1,2.3-2.3,2.3s-2.3-1-2.3-2.3C42.4,31.7,43.5,30.7,44.6,30.7z M44.6,37.3
		c2.4,0,4.4-2,4.4-4.4s-2-4.4-4.4-4.4s-4.4,2-4.4,4.4C40.3,35.4,42.2,37.3,44.6,37.3z"/>
	<path d="M51.3,57.9c-0.6,0-1.1-0.5-1.1-1.1c0-0.7,0.5-1.1,1.1-1.1c0.7,0,1.1,0.5,1.1,1.1C52.5,57.4,51.9,57.9,51.3,57.9z
		 M51.3,53.5c-1.8,0-3.2,1.5-3.2,3.2c0,1.8,1.5,3.2,3.2,3.2c1.8,0,3.2-1.5,3.2-3.2C54.5,55,53,53.5,51.3,53.5z"/>
	<path d="M65.5,48.6c0.6,0,1.1,0.5,1.1,1.1c0,0.6-0.5,1.1-1.1,1.1c-0.7,0-1.1-0.5-1.1-1.1C64.4,49,64.9,48.6,65.5,48.6z M65.5,52.9
		c1.8,0,3.2-1.5,3.2-3.2c0-1.8-1.5-3.2-3.2-3.2c-1.8,0-3.2,1.5-3.2,3.2C62.2,51.4,63.7,52.9,65.5,52.9z"/>
	<path d="M55.7,29.6c0.6,0,1.1,0.5,1.1,1.1c0,0.6-0.5,1.1-1.1,1.1c-0.7,0-1.1-0.5-1.1-1.1C54.5,30.1,55,29.6,55.7,29.6z M52.3,30.8
		c0,1.8,1.5,3.2,3.2,3.2c1.8,0,3.2-1.5,3.2-3.2c0-1.8-1.5-3.2-3.2-3.2C53.8,27.4,52.3,28.9,52.3,30.8z"/>
	<path d="M49.1,41.1c0,0.6-0.5,1.1-1.1,1.1c-0.7,0-1.1-0.5-1.1-1.1c0-0.7,0.5-1.1,1.1-1.1C48.7,40,49.1,40.5,49.1,41.1z M44.8,41.1
		c0,1.8,1.5,3.2,3.2,3.2c1.8,0,3.2-1.5,3.2-3.2c0-1.8-1.5-3.2-3.2-3.2C46.3,37.9,44.8,39.4,44.8,41.1z"/>
	<path d="M55.7,48.6c0.6,0,1.1,0.5,1.1,1.1c0,0.6-0.5,1.1-1.1,1.1c-0.7,0-1.1-0.5-1.1-1.1C54.5,49,55,48.6,55.7,48.6z M55.7,52.9
		c1.8,0,3.2-1.5,3.2-3.2c0-1.8-1.5-3.2-3.2-3.2c-1.8,0-3.2,1.5-3.2,3.2C52.3,51.4,53.8,52.9,55.7,52.9z"/>
	<path d="M74.5,33.9c0,0.6-0.5,1.1-1.1,1.1c-0.7,0-1.1-0.5-1.1-1.1s0.5-1.1,1.1-1.1C74,32.7,74.5,33.3,74.5,33.9z M70.1,33.9
		c0,1.8,1.5,3.2,3.2,3.2c1.8,0,3.2-1.5,3.2-3.2c0-1.8-1.5-3.2-3.2-3.2C71.5,30.7,70.1,32.1,70.1,33.9z"/>
</g>
</svg>
